<svg xmlns="http://www.w3.org/2000/svg" xmlns:xlink="http://www.w3.org/1999/xlink" width="500" zoomAndPan="magnify" viewBox="0 0 375 374.999991" height="500" preserveAspectRatio="xMidYMid meet" version="1.0"><defs><clipPath id="cc70d5c0eb"><path d="M 0 6 L 0 369 C 0 372.3125 2.6875 375 6 375 L 369 375 C 372.3125 375 375 372.3125 375 369 L 375 6 C 375 2.6875 372.3125 0 369 0 L 6 0 C 2.6875 0 0 2.6875 0 6 Z M 0 6 " clip-rule="nonzero"/></clipPath></defs><g clip-path="url(#cc70d5c0eb)"><path fill="#800020" d="M 156.304688 332.179688 L 72.816406 153.988281 L 156.316406 237.492188 L 303.210938 90.59375 C 275.324219 83.207031 213.503906 61.015625 156.304688 0.351562 C 79.101562 83.320312 -5.769531 93.925781 -5.769531 93.925781 C -5.769531 209.730469 56.015625 316.746094 156.304688 374.648438 C 235.273438 329.054688 290.359375 253.015625 310.21875 166.210938 L 380.777344 13.027344 L 156.304688 332.179688 " fill-opacity="1" fill-rule="nonzero"/></g></svg>